<svg xmlns="http://www.w3.org/2000/svg" width="256" height="256">
<path d="M 15 147.2 L 15 147.2 L 17 152.6 L 19 158.2 L 22 163.9 L 27 169.6 L 32 175.2 L 39 180.7 L 47 185.9 L 56 190.8 L 66 195.2 L 77 198.9 L 89 202.0 L 101 204.3 L 115 205.7 L 128 206.1 L 141 205.7 L 155 204.3 L 167 202.0 L 179 198.9 L 190 195.2 L 200 190.8 L 209 185.9 L 217 180.7 L 224 175.2 L 229 169.6 L 234 163.9 L 237 158.2 L 239 152.6 L 241 147.2" fill="none" stroke="#6d2e98" stroke-width="20"/>
<path d="M 21 87.4 L 21 87.4 L 21 90.1 L 21 93.0 L 22 95.9 L 24 99.0 L 26 102.1 L 30 105.2 L 34 108.3 L 39 111.4 L 46 114.4 L 53 117.2 L 61 119.8 L 71 122.2 L 81 124.2 L 92 125.8 L 104 127.0 L 116 127.8 L 128 128.0 L 140 127.8 L 152 127.0 L 164 125.8 L 175 124.2 L 185 122.2 L 195 119.8 L 203 117.2 L 210 114.4 L 217 111.4 L 222 108.3 L 226 105.2 L 230 102.1 L 232 99.0 L 234 95.9 L 235 93.0 L 235 90.1 L 235 87.4" fill="none" stroke="#6d2e98" stroke-width="20"/>
<path d="M 54 40.5 L 54 40.5 L 54 41.0 L 54 41.6 L 54 42.2 L 55 42.8 L 56 43.4 L 57 44.1 L 60 44.7 L 62 45.3 L 65 45.9 L 69 46.5 L 73 47.1 L 77 47.6 L 82 48.1 L 88 48.5 L 94 48.9 L 100 49.3 L 107 49.5 L 114 49.7 L 121 49.8 L 128 49.9 L 135 49.8 L 142 49.7 L 149 49.5 L 156 49.3 L 162 48.9 L 168 48.5 L 174 48.1 L 179 47.6 L 183 47.1 L 187 46.5 L 191 45.9 L 194 45.3 L 196 44.7 L 199 44.1 L 200 43.4 L 201 42.8 L 202 42.2 L 202 41.6 L 202 41.0 L 202 40.5" fill="none" stroke="#6d2e98" stroke-width="20"/>
<path d="M 125 13.6 L 125 13.6 L 123 14.5 L 119 16.5 L 116 19.5 L 112 23.9 L 109 29.7 L 105 37.0 L 100 45.9 L 96 56.3 L 92 68.2 L 88 81.3 L 85 95.5 L 82 110.3 L 79 125.6 L 77 140.7 L 75 155.4 L 74 169.3 L 74 182.2 L 74 193.7 L 75 203.8 L 77 212.4 L 78 219.5 L 80 225.1 L 82 229.4 L 84 232.6 L 87 234.6" fill="none" stroke="#6d2e98" stroke-width="20"/>
<path d="M 131 13.6 L 131 13.6 L 133 14.5 L 137 16.5 L 140 19.5 L 144 23.9 L 147 29.7 L 151 37.0 L 156 45.9 L 160 56.3 L 164 68.2 L 168 81.3 L 171 95.5 L 174 110.3 L 177 125.6 L 179 140.7 L 181 155.4 L 182 169.3 L 182 182.2 L 182 193.7 L 181 203.8 L 179 212.4 L 178 219.5 L 176 225.1 L 174 229.4 L 172 232.6 L 169 234.6" fill="none" stroke="#6d2e98" stroke-width="20"/>
<circle cx="128.0" cy="128.0" r="114.5" stroke="#6d2e98" stroke-width="20" fill="none"/>
</svg>